<?xml version="1.0" standalone="no"?>
<!DOCTYPE svg PUBLIC "-//W3C//DTD SVG 20010904//EN"
 "http://www.w3.org/TR/2001/REC-SVG-20010904/DTD/svg10.dtd">
<svg version="1.0" xmlns="http://www.w3.org/2000/svg"
 width="345.000000pt" height="345.000000pt" viewBox="0 0 345.000000 345.000000"
 preserveAspectRatio="xMidYMid meet">
<metadata>
Created by potrace 1.11, written by Peter Selinger 2001-2013
</metadata>
<g transform="translate(0.000000,345.000000) scale(0.100000,-0.100000)"
fill="#000000" stroke="none">
<path d="M606 3275 c-84 -23 -171 -73 -230 -131 -31 -31 -56 -60 -56 -65 0 -6
-5 -7 -10 -4 -6 4 -9 3 -8 -2 1 -4 -11 -35 -26 -68 -16 -33 -34 -93 -40 -133
-6 -42 -15 -70 -20 -65 -5 5 -6 2 -1 -7 11 -18 14 -51 5 -45 -4 2 -7 -2 -7
-10 0 -8 3 -12 7 -10 9 6 6 -107 -3 -122 -5 -7 -4 -13 0 -13 5 0 8 -49 8 -109
0 -84 -3 -107 -12 -100 -6 6 -9 18 -6 27 4 14 3 15 -6 2 -7 -11 -6 -19 6 -32
9 -10 18 -31 19 -46 2 -20 1 -23 -6 -12 -6 9 -10 10 -10 3 0 -6 5 -15 10 -18
17 -11 11 -24 -10 -20 -11 2 -20 -1 -20 -7 0 -5 7 -8 15 -5 8 4 17 2 20 -3 3
-4 -1 -11 -7 -13 -10 -4 -10 -6 0 -6 6 -1 12 -6 12 -12 0 -5 -4 -8 -8 -5 -5 3
-9 -1 -9 -9 0 -8 3 -12 7 -10 3 2 6 -5 6 -15 0 -10 -3 -17 -6 -15 -4 2 -7 -2
-7 -10 0 -8 3 -12 7 -10 11 7 6 -139 -5 -147 -7 -5 -6 -8 1 -8 6 0 10 -24 10
-59 -1 -45 -4 -57 -13 -50 -6 6 -9 18 -6 27 4 14 3 15 -6 2 -7 -11 -6 -19 7
-33 10 -12 17 -38 17 -74 2 -46 0 -53 -10 -39 -11 15 -13 15 -19 1 -3 -9 -2
-13 3 -10 20 12 26 -27 26 -192 0 -134 -2 -169 -12 -162 -6 6 -9 18 -6 27 4
14 3 15 -6 2 -7 -11 -6 -19 6 -32 9 -10 18 -31 19 -46 2 -20 1 -23 -6 -12 -6
9 -10 10 -10 3 0 -6 5 -15 10 -18 17 -11 11 -24 -10 -20 -11 2 -20 -1 -20 -7
0 -5 7 -8 15 -5 8 4 17 2 20 -3 3 -4 -1 -11 -7 -13 -10 -4 -10 -6 0 -6 6 -1
12 -6 12 -12 0 -5 -4 -8 -8 -5 -5 3 -9 -1 -9 -9 0 -8 3 -12 7 -10 3 2 6 -5 6
-15 0 -10 -3 -17 -6 -15 -4 2 -7 -2 -7 -10 0 -8 3 -12 7 -10 11 7 6 -139 -5
-147 -7 -5 -6 -8 1 -8 6 0 10 -24 10 -59 -1 -45 -4 -57 -13 -50 -6 6 -9 18 -6
27 4 14 3 15 -6 2 -7 -11 -6 -19 7 -33 10 -12 17 -38 17 -74 2 -46 0 -53 -10
-39 -11 15 -13 15 -19 1 -3 -9 -2 -13 3 -10 23 14 38 -79 18 -104 -9 -11 -9
-13 0 -8 16 10 56 -115 40 -125 -8 -5 -7 -8 4 -8 9 0 21 -12 28 -26 6 -15 28
-47 49 -72 44 -53 99 -112 88 -95 -4 7 13 1 38 -15 25 -15 46 -33 46 -39 0 -7
5 -13 11 -13 5 0 7 5 3 12 -5 8 -2 9 12 4 10 -5 33 -13 49 -18 17 -6 36 -16
44 -22 12 -9 13 -8 6 3 -6 10 -4 12 5 6 7 -4 26 -8 42 -7 18 0 26 -3 22 -10
-5 -7 -2 -8 7 -2 22 14 63 10 71 -6 5 -12 7 -12 7 3 1 9 8 17 17 17 9 0 14 -6
11 -13 -3 -7 5 -13 20 -13 22 -2 23 -1 6 11 -16 13 -14 14 17 12 20 -1 38 -8
42 -17 6 -13 7 -13 7 1 1 9 8 16 16 16 10 0 14 -6 10 -15 -5 -13 -3 -13 11 -1
23 18 67 18 76 -1 5 -12 7 -12 7 3 1 9 8 17 17 17 9 0 14 -6 11 -12 -3 -8 5
-14 20 -14 22 -2 23 -1 6 11 -16 13 -14 14 17 12 20 -1 38 -8 42 -17 6 -13 7
-13 7 1 1 9 8 16 16 16 10 0 14 -6 10 -15 -5 -13 -3 -13 11 -1 23 18 67 18 76
-1 5 -12 7 -12 7 3 1 9 8 17 17 17 9 0 14 -6 11 -12 -3 -8 5 -14 20 -14 22 -2
23 -1 6 11 -16 13 -14 14 17 12 20 -1 38 -8 42 -17 6 -13 7 -13 7 1 1 9 8 16
16 16 10 0 14 -6 10 -15 -5 -13 -3 -13 11 -1 23 18 67 18 76 -1 5 -12 7 -12 7
3 1 9 8 17 17 17 9 0 14 -6 11 -12 -3 -8 5 -14 20 -14 22 -2 23 -1 6 11 -16
13 -14 14 17 12 20 -1 38 -8 42 -17 6 -13 7 -13 7 1 1 9 8 16 16 16 10 0 14
-6 10 -15 -5 -13 -3 -13 11 -1 23 18 67 18 76 -1 5 -12 7 -11 7 4 1 16 3 17
18 5 9 -8 14 -9 11 -4 -4 7 175 10 533 10 354 0 539 -3 539 -10 0 -5 4 -4 9 4
5 8 18 12 30 8 12 -3 21 -2 21 2 0 7 26 12 72 15 14 0 24 4 22 8 -2 4 6 10 18
14 35 11 119 67 157 105 19 19 39 33 44 31 4 -1 6 2 3 7 -3 4 8 27 24 49 16
22 39 69 52 104 l23 63 2 1080 c3 1175 5 1127 -53 1241 -54 108 -161 201 -282
247 l-57 22 -1140 2 c-929 1 -1149 -1 -1189 -12z"/>
<path d="M213 2882 c-1 -22 0 -24 9 -8 6 10 6 22 2 26 -5 5 -10 -3 -11 -18z"/>
<path d="M196 2692 c-3 -5 1 -9 9 -9 8 0 12 4 9 9 -3 4 -7 8 -9 8 -2 0 -6 -4
-9 -8z"/>
<path d="M193 2645 c0 -8 4 -12 9 -9 5 3 6 10 3 15 -9 13 -12 11 -12 -6z"/>
<path d="M200 2530 c-9 -6 -10 -10 -3 -10 6 0 15 5 18 10 8 12 4 12 -15 0z"/>
<path d="M186 2492 c-3 -5 1 -9 9 -9 8 0 12 4 9 9 -3 4 -7 8 -9 8 -2 0 -6 -4
-9 -8z"/>
<path d="M189 2453 c-13 -16 -12 -17 4 -4 9 7 17 15 17 17 0 8 -8 3 -21 -13z"/>
<path d="M175 2251 c-3 -5 -2 -12 3 -15 5 -3 9 1 9 9 0 17 -3 19 -12 6z"/>
<path d="M200 2130 c-9 -6 -10 -10 -3 -10 6 0 15 5 18 10 8 12 4 12 -15 0z"/>
<path d="M200 2050 c-9 -6 -10 -10 -3 -10 6 0 15 5 18 10 8 12 4 12 -15 0z"/>
<path d="M189 1973 c-13 -16 -12 -17 4 -4 9 7 17 15 17 17 0 8 -8 3 -21 -13z"/>
<path d="M199 1758 c-7 -23 -4 -35 7 -35 9 0 11 4 4 12 -5 7 -7 15 -3 18 3 4
3 7 0 7 -4 0 -7 -1 -8 -2z"/>
<path d="M193 1685 c0 -8 4 -12 9 -9 5 3 6 10 3 15 -9 13 -12 11 -12 -6z"/>
<path d="M195 1653 c3 -3 0 -11 -5 -18 -7 -8 -5 -12 4 -12 14 0 16 22 3 32 -4
3 -5 2 -2 -2z"/>
<path d="M200 1570 c-9 -6 -10 -10 -3 -10 6 0 15 5 18 10 8 12 4 12 -15 0z"/>
<path d="M186 1532 c-3 -5 1 -9 9 -9 8 0 12 4 9 9 -3 4 -7 8 -9 8 -2 0 -6 -4
-9 -8z"/>
<path d="M189 1493 c-13 -16 -12 -17 4 -4 9 7 17 15 17 17 0 8 -8 3 -21 -13z"/>
<path d="M175 1291 c-3 -5 -2 -12 3 -15 5 -3 9 1 9 9 0 17 -3 19 -12 6z"/>
<path d="M200 1170 c-9 -6 -10 -10 -3 -10 6 0 15 5 18 10 8 12 4 12 -15 0z"/>
<path d="M200 1090 c-9 -6 -10 -10 -3 -10 6 0 15 5 18 10 8 12 4 12 -15 0z"/>
<path d="M189 1013 c-13 -16 -12 -17 4 -4 16 13 21 21 13 21 -2 0 -10 -8 -17
-17z"/>
<path d="M190 686 c0 -2 8 -10 18 -17 15 -13 16 -12 3 4 -13 16 -21 21 -21 13z"/>
<path d="M193 645 c0 -8 4 -12 9 -9 5 3 6 10 3 15 -9 13 -12 11 -12 -6z"/>
<path d="M206 615 c-11 -8 -15 -15 -9 -15 6 0 16 7 23 15 16 19 11 19 -14 0z"/>
<path d="M230 576 c0 -3 9 -10 20 -16 11 -6 20 -8 20 -6 0 3 -9 10 -20 16 -11
6 -20 8 -20 6z"/>
<path d="M267 521 c-3 -13 -1 -18 9 -14 7 2 10 11 7 19 -7 19 -10 18 -16 -5z"/>
<path d="M310 491 c0 -6 4 -13 10 -16 6 -3 7 1 4 9 -7 18 -14 21 -14 7z"/>
<path d="M295 430 c3 -5 8 -10 11 -10 2 0 4 5 4 10 0 6 -5 10 -11 10 -5 0 -7
-4 -4 -10z"/>
<path d="M333 419 c-2 -23 3 -25 10 -4 4 8 3 16 -1 19 -4 3 -9 -4 -9 -15z"/>
<path d="M356 412 c-3 -5 1 -9 9 -9 8 0 12 4 9 9 -3 4 -7 8 -9 8 -2 0 -6 -4
-9 -8z"/>
<path d="M390 393 c0 -6 8 -17 18 -24 16 -13 16 -13 2 6 -8 11 -16 22 -17 24
-2 2 -3 0 -3 -6z"/>
<path d="M430 356 c0 -2 9 -6 20 -9 11 -3 18 -1 14 4 -5 9 -34 13 -34 5z"/>
<path d="M413 335 c0 -8 4 -12 9 -9 5 3 6 10 3 15 -9 13 -12 11 -12 -6z"/>
<path d="M536 311 c-3 -5 2 -15 12 -22 15 -12 16 -12 5 2 -7 9 -10 19 -6 22 3
4 4 7 0 7 -3 0 -8 -4 -11 -9z"/>
<path d="M593 280 c1 -21 10 -18 13 5 1 8 -2 15 -6 15 -5 0 -8 -9 -7 -20z"/>
<path d="M1950 275 c-11 -13 -10 -14 4 -9 9 3 16 10 16 15 0 13 -6 11 -20 -6z"/>
<path d="M2030 275 c-11 -13 -10 -14 4 -9 9 3 16 10 16 15 0 13 -6 11 -20 -6z"/>
<path d="M2110 275 c-11 -13 -10 -14 4 -9 9 3 16 10 16 15 0 13 -6 11 -20 -6z"/>
<path d="M2190 275 c-11 -13 -10 -14 4 -9 9 3 16 10 16 15 0 13 -6 11 -20 -6z"/>
<path d="M2270 275 c-11 -13 -10 -14 4 -9 9 3 16 10 16 15 0 13 -6 11 -20 -6z"/>
<path d="M2350 275 c-11 -13 -10 -14 4 -9 9 3 16 10 16 15 0 13 -6 11 -20 -6z"/>
<path d="M2430 275 c-11 -13 -10 -14 4 -9 9 3 16 10 16 15 0 13 -6 11 -20 -6z"/>
<path d="M2510 275 c-11 -13 -10 -14 4 -9 9 3 16 10 16 15 0 13 -6 11 -20 -6z"/>
<path d="M2590 275 c-11 -13 -10 -14 4 -9 9 3 16 10 16 15 0 13 -6 11 -20 -6z"/>
<path d="M2670 275 c-11 -13 -10 -14 4 -9 9 3 16 10 16 15 0 13 -6 11 -20 -6z"/>
<path d="M2751 277 c-8 -10 -7 -14 2 -14 8 0 14 6 14 14 0 7 -1 13 -2 13 -2 0
-8 -6 -14 -13z"/>
<path d="M1986 272 c-3 -5 1 -9 9 -9 8 0 12 4 9 9 -3 4 -7 8 -9 8 -2 0 -6 -4
-9 -8z"/>
<path d="M2066 272 c-3 -5 1 -9 9 -9 8 0 12 4 9 9 -3 4 -7 8 -9 8 -2 0 -6 -4
-9 -8z"/>
<path d="M2146 272 c-3 -5 1 -9 9 -9 8 0 12 4 9 9 -3 4 -7 8 -9 8 -2 0 -6 -4
-9 -8z"/>
<path d="M2226 272 c-3 -5 1 -9 9 -9 8 0 12 4 9 9 -3 4 -7 8 -9 8 -2 0 -6 -4
-9 -8z"/>
<path d="M2306 272 c-3 -5 1 -9 9 -9 8 0 12 4 9 9 -3 4 -7 8 -9 8 -2 0 -6 -4
-9 -8z"/>
<path d="M2386 272 c-3 -5 1 -9 9 -9 8 0 12 4 9 9 -3 4 -7 8 -9 8 -2 0 -6 -4
-9 -8z"/>
<path d="M2466 272 c-3 -5 1 -9 9 -9 8 0 12 4 9 9 -3 4 -7 8 -9 8 -2 0 -6 -4
-9 -8z"/>
<path d="M2546 272 c-3 -5 1 -9 9 -9 8 0 12 4 9 9 -3 4 -7 8 -9 8 -2 0 -6 -4
-9 -8z"/>
<path d="M2626 272 c-3 -5 1 -9 9 -9 8 0 12 4 9 9 -3 4 -7 8 -9 8 -2 0 -6 -4
-9 -8z"/>
<path d="M2706 272 c-3 -5 1 -9 9 -9 8 0 12 4 9 9 -3 4 -7 8 -9 8 -2 0 -6 -4
-9 -8z"/>
<path d="M2890 269 c0 -5 5 -7 10 -4 6 3 10 8 10 11 0 2 -4 4 -10 4 -5 0 -10
-5 -10 -11z"/>
<path d="M1902 254 c10 -10 20 -16 22 -13 3 3 -5 11 -17 18 -21 13 -21 12 -5
-5z"/>
<path d="M666 248 c3 -5 10 -6 15 -3 13 9 11 12 -6 12 -8 0 -12 -4 -9 -9z"/>
</g>
</svg>
